<?xml version="1.0" encoding="UTF-8"?>
<svg width="15px" height="15px" viewBox="0 0 15 15" version="1.1" xmlns="http://www.w3.org/2000/svg" xmlns:xlink="http://www.w3.org/1999/xlink">
    <!-- Generator: Sketch 49.2 (51160) - http://www.bohemiancoding.com/sketch -->
    <title>download</title>
    <desc>Created with Sketch.</desc>
    <defs></defs>
    <g id="Page-1" stroke="none" stroke-width="1" fill="none" fill-rule="evenodd">
        <g id="A4-Copy-5" transform="translate(-232.000000, -429.000000)" fill="#971781" fill-rule="nonzero">
            <g id="Group-11" transform="translate(60.000000, 81.000000)">
                <g id="Group-4-Copy-3">
                    <g id="Group-3" transform="translate(7.000000, 268.000000)">
                        <g id="download" transform="translate(165.000000, 80.000000)">
                            <path d="M6.328125,0 L8.671875,0 C9.06152344,0 9.375,0.313476563 9.375,0.703125 L9.375,5.625 L11.9443359,5.625 C12.4658203,5.625 12.7265625,6.25488281 12.3574219,6.62402344 L7.90136719,11.0830078 C7.68164063,11.3027344 7.32128906,11.3027344 7.1015625,11.0830078 L2.63964844,6.62402344 C2.27050781,6.25488281 2.53125,5.625 3.05273438,5.625 L5.625,5.625 L5.625,0.703125 C5.625,0.313476563 5.93847656,0 6.328125,0 Z M15,11.015625 L15,14.296875 C15,14.6865234 14.6865234,15 14.296875,15 L0.703125,15 C0.313476563,15 0,14.6865234 0,14.296875 L0,11.015625 C0,10.6259766 0.313476563,10.3125 0.703125,10.3125 L5.00097656,10.3125 L6.43652344,11.7480469 C7.02539063,12.3369141 7.97460938,12.3369141 8.56347656,11.7480469 L9.99902344,10.3125 L14.296875,10.3125 C14.6865234,10.3125 15,10.6259766 15,11.015625 Z M11.3671875,13.59375 C11.3671875,13.2714844 11.1035156,13.0078125 10.78125,13.0078125 C10.4589844,13.0078125 10.1953125,13.2714844 10.1953125,13.59375 C10.1953125,13.9160156 10.4589844,14.1796875 10.78125,14.1796875 C11.1035156,14.1796875 11.3671875,13.9160156 11.3671875,13.59375 Z M13.2421875,13.59375 C13.2421875,13.2714844 12.9785156,13.0078125 12.65625,13.0078125 C12.3339844,13.0078125 12.0703125,13.2714844 12.0703125,13.59375 C12.0703125,13.9160156 12.3339844,14.1796875 12.65625,14.1796875 C12.9785156,14.1796875 13.2421875,13.9160156 13.2421875,13.59375 Z" id="Shape"></path>
                        </g>
                    </g>
                </g>
            </g>
        </g>
    </g>
</svg>