<?xml version="1.0" encoding="UTF-8"?>
<svg width="38px" height="32px" viewBox="0 0 38 32" version="1.1" xmlns="http://www.w3.org/2000/svg" xmlns:xlink="http://www.w3.org/1999/xlink">
    <!-- Generator: Sketch 49.2 (51160) - http://www.bohemiancoding.com/sketch -->
    <title>plane copy</title>
    <desc>Created with Sketch.</desc>
    <defs></defs>
    <g id="Page-1" stroke="none" stroke-width="1" fill="none" fill-rule="evenodd" opacity="0.203408062">
        <g id="A4-Copy-5" transform="translate(-91.000000, -145.000000)" fill="#FFFFFF" fill-rule="nonzero">
            <g id="Group-11" transform="translate(60.000000, 81.000000)">
                <g id="plane-copy" transform="translate(47.420629, 76.806690) rotate(-145.000000) translate(-47.420629, -76.806690) translate(27.420629, 59.306690)">
                    <path d="M32.5120971,13.0246753 L24.7707886,13.0246753 L17.6519546,0.546765015 C17.4587288,0.208604749 17.09948,-2.44352998e-05 16.7104533,0 L12.2738822,0 C11.5538707,0 11.0343516,0.689900769 11.2321347,1.38319338 L14.5531283,13.0246753 L7.5860183,13.0246753 L4.65991339,9.1172727 C4.45535699,8.84389019 4.13362091,8.68311686 3.79291935,8.68311686 L1.08424029,8.68311686 C0.379130292,8.68311686 -0.138356779,9.34656126 0.0330100131,10.0317134 L2.16730551,17.3662337 L0.0330100131,24.700754 C-0.138356779,25.3859062 0.379130292,26.0493506 1.08424029,26.0493506 L3.79291935,26.0493506 C4.13429825,26.0493506 4.45535699,25.8885772 4.65991339,25.6151947 L7.5860183,21.7077921 L14.5531283,21.7077921 L11.2321347,33.3485957 C11.0343516,34.0418883 11.5538707,34.7324674 12.2738822,34.7324674 L16.7104533,34.7324674 C17.0992459,34.7324674 17.4582357,34.5235299 17.6512773,34.1857024 L24.7707886,21.7077921 L32.5120971,21.7077921 C34.9064908,21.7077921 39.0145525,19.7642664 39.0145525,17.3662337 C39.0145525,14.9682011 34.9064908,13.0246753 32.5120971,13.0246753 Z" id="Shape" opacity="0.216485507"></path>
                </g>
            </g>
        </g>
    </g>
</svg>